<svg width="133" height="132" viewBox="0 0 133 132" fill="none" xmlns="http://www.w3.org/2000/svg">
<rect width="133" height="132" fill="#E5E5E5"/>
<rect x="-896" y="-1633" width="1366" height="5161" fill="white"/>
<g filter="url(#filter0_d)">
<rect x="-123" y="-48" width="380" height="525" rx="10" fill="white"/>
</g>
<path d="M133 66.5C132.993 78.5373 129.645 90.3405 123.32 100.616C116.996 110.892 107.941 119.244 97.1466 124.756C96.6608 125.008 96.1716 125.251 95.679 125.483L95.5771 125.534L95.2255 125.701C94.9351 125.842 94.6497 125.973 94.3542 126.105C92.5095 126.943 90.6173 127.696 88.6775 128.363C87.5769 128.743 86.4643 129.095 85.3398 129.419L83.9946 129.787C69.0267 133.739 53.1354 132.368 39.081 125.913C38.5052 125.645 37.9294 125.372 37.3638 125.089L36.3446 124.584C26.2574 119.344 17.7007 111.618 11.4979 102.15C10.8457 101.163 10.224 100.153 9.63292 99.1186C9.10636 98.2194 8.59679 97.3085 8.10421 96.3857C3.31679 87.1395 0.827194 76.8931 0.842816 66.5C0.842816 65.2741 0.876786 64.055 0.944729 62.8426C1.90008 45.8104 9.52035 29.8196 22.1848 18.2713C34.8493 6.72297 51.5586 0.528265 68.7591 1.00471C85.9596 1.48115 102.294 8.59114 114.288 20.8225C126.282 33.0539 132.99 49.4415 132.985 66.5H133Z" fill="url(#paint0_linear)"/>
<path d="M53.9452 64.1712C53.9452 64.1712 39.1676 57.2252 37.8835 47.6674C36.5994 38.1096 37.5013 28.9762 44.8646 26.4201C44.8646 26.4201 49.5221 11.6995 66.0322 17.615C82.5423 23.5305 79.9384 41.2922 88.9629 43.4189C97.9874 45.5457 114.839 36.5891 118.054 47.5158C121.27 58.4426 110.696 57.7758 103.669 67.0507C96.6421 76.3255 107.496 81.1954 105.509 87.5807C103.521 93.966 96.0153 98.3559 96.0153 98.3559L53.9452 64.1712Z" fill="url(#paint1_linear)"/>
<path d="M33.7101 85.1357L37.8835 96.3857H38.337L44.8646 67.0507C40.7422 70.6323 33.7101 85.1357 33.7101 85.1357Z" fill="url(#paint2_linear)"/>
<path d="M26.3825 100.654L23.7378 101.973C20.4562 103.923 15.5541 103.367 15.5541 103.367C18.2039 106.322 33.1241 109.667 37.3179 109.581L38.0924 99.1136H28.7979L26.3825 100.654Z" fill="url(#paint3_linear)"/>
<path d="M95.679 125.468L95.5771 125.519L95.2255 125.685C94.9351 125.827 94.6497 125.958 94.3541 126.09C92.5095 126.928 90.6173 127.681 88.6775 128.348C87.5769 128.728 86.4643 129.08 85.3398 129.403L83.9946 129.772C69.0267 133.724 53.1354 132.353 39.081 125.898C38.5052 125.63 37.9294 125.357 37.3638 125.074L36.3446 124.569C36.4873 120.235 36.7064 115.047 37.0275 109.576C37.2313 106.156 37.481 102.625 37.7765 99.1186C37.853 98.2043 37.9345 97.295 38.016 96.3857C39.2186 83.4635 41.1448 71.4809 44.2328 67.672L44.2787 67.6215C44.6707 67.0865 45.2238 66.6886 45.8583 66.4848C50.3171 65.4341 53.4611 65.0805 53.9554 64.1712C54.4497 63.2619 53.9554 61.4736 53.9554 61.4736L54.8421 61.3523C56.1313 61.1604 58.6333 60.7562 61.0028 60.15C61.0177 60.1547 61.0337 60.1547 61.0486 60.15C63.143 59.6095 65.1252 58.9124 66.0934 58.0738L68.0807 63.3124C68.0807 63.3124 83.0264 61.4382 88.861 67.0708C88.8969 67.0971 88.9294 67.1276 88.9578 67.1618C89.0194 67.2169 89.0772 67.2759 89.131 67.3386C89.4781 67.7025 89.7871 68.1002 90.0534 68.5257C91.9541 71.5567 93.2993 83.7211 94.2318 96.9161C94.4459 99.9471 94.6395 103.079 94.8077 106.146C95.1949 113.228 95.4854 120.088 95.679 125.468Z" fill="url(#paint4_linear)"/>
<path opacity="0.15" d="M95.5771 125.534L95.2255 125.701C94.935 125.842 94.6497 125.973 94.3541 126.105C92.5095 126.943 90.6173 127.696 88.6775 128.363C87.5768 128.743 86.4643 129.095 85.3398 129.419C78.4555 122.149 75.7242 112.713 75.7242 112.713L94.7974 106.146L95.5771 125.534Z" fill="black"/>
<path d="M88.8558 67.0507C95.7605 73.7694 97.2637 87.8737 95.9898 98.371C94.7159 108.868 92.3515 118.699 87.4392 118.396C82.5269 118.093 65.5277 106.403 58.9593 100.028L62.7964 92.7283L76.6771 98.462V83.1807L88.8558 67.0507Z" fill="url(#paint5_linear)"/>
<path d="M88.8558 67.0507C95.7605 73.7694 97.2637 87.8737 95.9898 98.371C94.7159 108.868 92.3515 118.699 87.4392 118.396C82.5269 118.093 65.5277 106.403 58.9593 100.028L62.7964 92.7283L76.6771 98.462V83.1807L88.8558 67.0507Z" fill="url(#paint6_linear)"/>
<g filter="url(#filter1_d)">
<path d="M53.1451 96.3857H-10.5461V99.1186H53.1451V96.3857Z" fill="url(#paint7_linear)"/>
<path d="M25.4347 62.8426H-23L-10.5461 96.3857H37.8835L25.4347 62.8426Z" fill="url(#paint8_linear)"/>
</g>
<path d="M3.99707 99.1187C3.99707 99.1187 12.354 103.266 17.6638 103.367C22.9735 103.468 28.803 99.1187 28.803 99.1187H3.99707Z" fill="url(#paint9_linear)"/>
<path d="M62.7964 92.7283C62.7964 92.7283 55.4484 89.0507 52.284 88.6465C49.1196 88.2424 39.295 96.3857 39.295 96.3857H53.1554L58.9747 100.028L62.7964 92.7283Z" fill="url(#paint10_linear)"/>
<path d="M65.4717 49.789C65.5082 52.5552 65.7124 55.3167 66.0832 58.0586C62.7965 59.8924 58.9492 60.8775 54.8319 61.3574L54.5924 58.0586L54.4497 56.038V55.9723C53.656 55.9546 52.8736 55.783 52.1465 55.4671C47.173 53.3404 46.1029 42.944 46.1029 42.944C48.0954 42.8632 50.6891 39.3018 50.6891 39.3018C52.1413 41.5043 58.8779 45.7578 62.7863 44.6161C66.6947 43.4744 66.3889 40.7415 66.3889 40.7415C67.0958 41.037 67.7073 41.5193 68.1566 42.1357C68.6059 42.7522 68.8758 43.4791 68.9368 44.2372C69.1457 46.9045 65.4717 49.789 65.4717 49.789Z" fill="url(#paint11_linear)"/>
<path opacity="0.15" d="M62.134 52.7241C61.2117 54.2699 57.0383 56.73 54.5975 58.0687L54.4548 56.0481C54.6076 56.0481 54.7554 55.9975 54.8981 55.9672C56.8908 55.6176 58.8035 54.9142 60.5441 53.891C60.5649 53.8829 60.584 53.8709 60.6002 53.8556C61.1233 53.5491 61.6133 53.1902 62.0627 52.7847L62.134 52.7241Z" fill="black"/>
<path opacity="0.15" d="M70.9495 96.1028L81.7626 100.488L76.6669 96.8454V83.2059C76.6669 83.2059 75.0719 95.0571 70.9495 96.1028Z" fill="black"/>
<defs>
<filter id="filter0_d" x="-168" y="-78" width="480" height="625" filterUnits="userSpaceOnUse" color-interpolation-filters="sRGB">
<feFlood flood-opacity="0" result="BackgroundImageFix"/>
<feColorMatrix in="SourceAlpha" type="matrix" values="0 0 0 0 0 0 0 0 0 0 0 0 0 0 0 0 0 0 127 0"/>
<feOffset dx="5" dy="20"/>
<feGaussianBlur stdDeviation="25"/>
<feColorMatrix type="matrix" values="0 0 0 0 0.0627451 0 0 0 0 0.439216 0 0 0 0 0.694118 0 0 0 0.2 0"/>
<feBlend mode="normal" in2="BackgroundImageFix" result="effect1_dropShadow"/>
<feBlend mode="normal" in="SourceGraphic" in2="effect1_dropShadow" result="shape"/>
</filter>
<filter id="filter1_d" x="-38" y="47.8426" width="116.145" height="76.2761" filterUnits="userSpaceOnUse" color-interpolation-filters="sRGB">
<feFlood flood-opacity="0" result="BackgroundImageFix"/>
<feColorMatrix in="SourceAlpha" type="matrix" values="0 0 0 0 0 0 0 0 0 0 0 0 0 0 0 0 0 0 127 0"/>
<feOffset dx="5" dy="5"/>
<feGaussianBlur stdDeviation="10"/>
<feColorMatrix type="matrix" values="0 0 0 0 0 0 0 0 0 0 0 0 0 0 0 0 0 0 0.2 0"/>
<feBlend mode="normal" in2="BackgroundImageFix" result="effect1_dropShadow"/>
<feBlend mode="normal" in="SourceGraphic" in2="effect1_dropShadow" result="shape"/>
</filter>
<linearGradient id="paint0_linear" x1="67.1925" y1="8.09361" x2="64.9707" y2="137.225" gradientUnits="userSpaceOnUse">
<stop stop-color="white" stop-opacity="0"/>
<stop offset="1" stop-color="#64B5F6" stop-opacity="0.6"/>
</linearGradient>
<linearGradient id="paint1_linear" x1="37.3994" y1="57.2807" x2="118.656" y2="57.2807" gradientUnits="userSpaceOnUse">
<stop stop-color="#EF9A9A"/>
<stop offset="1" stop-color="#D81B60"/>
</linearGradient>
<linearGradient id="paint2_linear" x1="38.6836" y1="82.8826" x2="36.2744" y2="110.514" gradientUnits="userSpaceOnUse">
<stop stop-color="#7E57C2"/>
<stop offset="1" stop-color="#4527A0"/>
</linearGradient>
<linearGradient id="paint3_linear" x1="6775.02" y1="2527.43" x2="6751.49" y2="3103.43" gradientUnits="userSpaceOnUse">
<stop stop-color="#7E57C2"/>
<stop offset="1" stop-color="#4527A0"/>
</linearGradient>
<linearGradient id="paint4_linear" x1="20303.2" y1="14858" x2="24430.7" y2="22492.9" gradientUnits="userSpaceOnUse">
<stop stop-color="#7E57C2"/>
<stop offset="1" stop-color="#4527A0"/>
</linearGradient>
<linearGradient id="paint5_linear" x1="13922.4" y1="9770.53" x2="17586.5" y2="15926.1" gradientUnits="userSpaceOnUse">
<stop stop-color="#7E57C2"/>
<stop offset="1" stop-color="#4527A0"/>
</linearGradient>
<linearGradient id="paint6_linear" x1="80.7587" y1="72.7489" x2="75.0381" y2="119.812" gradientUnits="userSpaceOnUse">
<stop offset="0.14" stop-color="#7E57C2" stop-opacity="0"/>
<stop offset="0.26" stop-color="#724DBB" stop-opacity="0.21"/>
<stop offset="0.48" stop-color="#5F3DAF" stop-opacity="0.55"/>
<stop offset="0.66" stop-color="#5131A7" stop-opacity="0.79"/>
<stop offset="0.81" stop-color="#482AA2" stop-opacity="0.94"/>
<stop offset="0.91" stop-color="#4527A0"/>
</linearGradient>
<linearGradient id="paint7_linear" x1="-10.5461" y1="97.7496" x2="53.1451" y2="97.7496" gradientUnits="userSpaceOnUse">
<stop stop-color="#D2D4D5"/>
<stop offset="1" stop-color="#AAACAE"/>
</linearGradient>
<linearGradient id="paint8_linear" x1="499.989" y1="4198.71" x2="4104.02" y2="8332.05" gradientUnits="userSpaceOnUse">
<stop stop-color="#D2D4D5"/>
<stop offset="1" stop-color="#AAACAE"/>
</linearGradient>
<linearGradient id="paint9_linear" x1="5.57674" y1="94.557" x2="25.884" y2="103.338" gradientUnits="userSpaceOnUse">
<stop stop-color="#FFF8E1"/>
<stop offset="1" stop-color="#FFCC80"/>
</linearGradient>
<linearGradient id="paint10_linear" x1="7837.06" y1="2941.73" x2="8355.29" y2="3509.97" gradientUnits="userSpaceOnUse">
<stop stop-color="#FFF8E1"/>
<stop offset="1" stop-color="#FFCC80"/>
</linearGradient>
<linearGradient id="paint11_linear" x1="8006.47" y1="3227.22" x2="8461.41" y2="4088.69" gradientUnits="userSpaceOnUse">
<stop stop-color="#FFF8E1"/>
<stop offset="1" stop-color="#FFCC80"/>
</linearGradient>
</defs>
</svg>
